<svg width="76" height="103" viewBox="0 0 76 103" fill="none" xmlns="http://www.w3.org/2000/svg">
<g clip-path="url(#clip0_33_43)" filter="url(#filter0_d_33_43)">
<path d="M71.7105 90.4482C71.7105 92.9272 69.7041 94.942 67.225 94.942L9.22014 95.0083C7.24684 95.0083 5.57203 93.7398 4.96678 91.9737C4.80925 91.5177 4.72633 91.0368 4.72633 90.5311L4.63513 6.88167C4.63513 4.40261 6.64159 2.38786 9.12064 2.38786L62.383 2.32982L67.1255 2.32153C69.6046 2.32153 71.6193 4.32799 71.6193 6.80704L71.7105 90.4482Z" fill="url(#paint0_linear_33_43)"/>
<path d="M65.6995 89.9673L10.7374 90.0254C9.40255 90.0254 8.3247 88.9475 8.3247 87.6126L8.24179 9.76703C8.24179 8.43215 9.31964 7.3543 10.6545 7.3543L65.6083 7.29626C66.9431 7.29626 68.021 8.37411 68.021 9.70899L68.1039 87.5546C68.1122 88.8812 67.0343 89.9673 65.6995 89.9673Z" fill="white"/>
<path d="M57.9804 13.7136L17.8927 13.7633C16.5661 13.7633 15.4799 12.6855 15.4799 11.3589L15.4716 4.67623C15.4716 3.34964 16.5495 2.2635 17.8761 2.2635L57.9721 2.22205C59.2987 2.22205 60.3848 3.2999 60.3848 4.62648L60.3931 11.3091C60.3848 12.6357 59.307 13.7136 57.9804 13.7136ZM17.8761 3.49059C17.2294 3.49059 16.6987 4.02123 16.6987 4.66793L16.707 11.3506C16.707 11.9973 17.2377 12.5279 17.8844 12.5279L57.9804 12.4865C58.6271 12.4865 59.1577 11.9559 59.1577 11.3091L59.1494 4.62648C59.1494 3.97977 58.6188 3.44914 57.9721 3.44914L17.8761 3.49059Z" fill="url(#paint1_linear_33_43)"/>
<path d="M56.8445 5.11564L19.41 5.1571C18.9954 5.1571 18.6638 4.82545 18.6638 4.41089V0.787659C18.6638 0.373102 18.9954 0.0414557 19.41 0.0414557L56.8362 0C57.2508 0 57.5824 0.331646 57.5824 0.746203V4.36944C57.5907 4.78399 57.2591 5.11564 56.8445 5.11564Z" fill="url(#paint2_linear_33_43)"/>
<path d="M19.4431 5.15714L56.8113 5.11568C57.2425 5.11568 57.5907 4.76746 57.5907 4.33632V2.56201L18.6555 2.60347V4.37777C18.6555 4.80891 19.012 5.15714 19.4431 5.15714Z" fill="#58D6F4"/>
<path d="M32.5763 81.2118L29.3428 61.6447L26.7228 70.1597L19.2276 70.168C18.7715 70.168 18.4067 69.8031 18.4067 69.3471C18.4067 68.8911 18.7715 68.5263 19.2276 68.5263L25.5205 68.518L29.8402 54.4977L33.0738 74.1145L37.2691 60.6414L39.4994 67.0256L44.5239 54.8459L49.4074 74.1643L51.248 68.0205L56.6372 68.0123C57.0932 68.0123 57.4581 68.3771 57.4581 68.8331C57.4581 69.2891 57.0932 69.6539 56.6372 69.6539L52.4668 69.6622L49.2747 80.3163L44.1508 60.0528L39.3668 71.6355L37.352 65.8731L32.5763 81.2118Z" fill="#58D6F4"/>
<path d="M27.0212 43.4871L16.4831 43.4954C14.7835 43.4954 13.3905 42.1107 13.3905 40.411L13.374 25.6777C13.374 23.978 14.7586 22.5851 16.4583 22.5851L26.9963 22.5768C28.696 22.5768 30.0889 23.9614 30.0889 25.6611L30.1055 40.3945C30.1055 42.0942 28.7209 43.4788 27.0212 43.4871ZM16.45 23.4805C15.2395 23.4805 14.2611 24.4672 14.2611 25.6777L14.2777 40.411C14.2777 41.6216 15.2643 42.5999 16.4749 42.5999L27.0129 42.5916C28.2234 42.5916 29.2018 41.605 29.2018 40.3945L29.1852 25.6611C29.1852 24.4506 28.1985 23.4722 26.988 23.4722L16.45 23.4805Z" fill="url(#paint3_linear_33_43)"/>
<path d="M21.7398 40.6598C26.7228 40.6515 28.2732 37.7745 28.2732 37.7745C28.0493 37.4926 27.7674 37.2439 27.386 36.9951C26.076 36.1411 25.0231 35.7763 24.5836 35.4115C24.1359 35.055 23.8872 34.5327 23.8872 34.5327L23.6136 34.6985C23.6136 34.6985 23.4477 34.1264 23.539 33.2558C23.539 33.2558 23.9286 33.1563 24.2188 31.838C24.6831 31.9292 25.2303 30.7519 24.9733 30.3207C24.8075 30.0388 24.6085 30.0637 24.4676 30.1301C24.6085 29.5414 25.2469 26.283 21.7315 26.283C18.216 26.283 18.8544 29.5414 19.0037 30.1301C18.8627 30.0637 18.6638 30.0388 18.4979 30.3207C18.2409 30.7519 18.7964 31.9292 19.2607 31.838C19.5509 33.1563 19.9489 33.2475 19.9489 33.2475C20.0484 34.1098 19.8743 34.6902 19.8743 34.6902L19.6007 34.5244C19.6007 34.5244 19.3519 35.0384 18.9042 35.4032C18.4565 35.768 17.4118 36.1411 16.1018 36.9951C15.7204 37.2439 15.4302 37.4926 15.2146 37.7745C15.2063 37.7911 16.7651 40.6681 21.7398 40.6598Z" fill="url(#paint4_linear_33_43)"/>
<path d="M54.5561 27.2779L34.2677 27.3028C33.8863 27.3028 33.5795 26.996 33.5795 26.6146V26.4986C33.5795 26.1172 33.8863 25.8104 34.2677 25.8104L54.5561 25.7855C54.9375 25.7855 55.2443 26.0923 55.2443 26.4737V26.5898C55.2443 26.9712 54.9292 27.2779 54.5561 27.2779Z" fill="url(#paint5_linear_33_43)"/>
<path d="M47.0941 31.1416L34.2677 31.1582C33.8863 31.1582 33.5795 30.8514 33.5795 30.47V30.3539C33.5795 29.9725 33.8863 29.6658 34.2677 29.6658L47.0941 29.6492C47.4755 29.6492 47.7823 29.9559 47.7823 30.3373V30.4534C47.7823 30.8348 47.4755 31.1416 47.0941 31.1416Z" fill="url(#paint6_linear_33_43)"/>
<path opacity="0.6" d="M61.5539 35.7348L34.276 35.768C33.8946 35.768 33.5878 35.4612 33.5878 35.0798V34.9638C33.5878 34.5824 33.8946 34.2756 34.276 34.2756L61.5539 34.2424C61.9353 34.2424 62.242 34.5492 62.242 34.9306V35.0467C62.2338 35.4281 61.927 35.7348 61.5539 35.7348Z" fill="url(#paint7_linear_33_43)"/>
<path opacity="0.6" d="M60.9652 48.6441L15.4634 48.6939C15.0737 48.6939 14.7503 48.3788 14.7503 47.9808V47.9145C14.7503 47.5248 15.0654 47.2015 15.4634 47.2015L60.9652 47.1517C61.3549 47.1517 61.6782 47.4668 61.6782 47.8648V47.9311C61.6782 48.3291 61.3549 48.6441 60.9652 48.6441Z" fill="url(#paint8_linear_33_43)"/>
<path opacity="0.6" d="M61.5539 40.2452L34.276 40.2784C33.8946 40.2784 33.5878 39.9716 33.5878 39.5902V39.4741C33.5878 39.0927 33.8946 38.786 34.276 38.786L61.5539 38.7528C61.9353 38.7528 62.242 39.0596 62.242 39.441V39.5571C62.242 39.9384 61.9353 40.2452 61.5539 40.2452Z" fill="url(#paint9_linear_33_43)"/>
</g>
<defs>
<filter id="filter0_d_33_43" x="0.635132" y="0" width="75.0754" height="103" filterUnits="userSpaceOnUse" color-interpolation-filters="sRGB">
<feFlood flood-opacity="0" result="BackgroundImageFix"/>
<feColorMatrix in="SourceAlpha" type="matrix" values="0 0 0 0 0 0 0 0 0 0 0 0 0 0 0 0 0 0 127 0" result="hardAlpha"/>
<feOffset dy="4"/>
<feGaussianBlur stdDeviation="2"/>
<feComposite in2="hardAlpha" operator="out"/>
<feColorMatrix type="matrix" values="0 0 0 0 0 0 0 0 0 0 0 0 0 0 0 0 0 0 0.25 0"/>
<feBlend mode="normal" in2="BackgroundImageFix" result="effect1_dropShadow_33_43"/>
<feBlend mode="normal" in="SourceGraphic" in2="effect1_dropShadow_33_43" result="shape"/>
</filter>
<linearGradient id="paint0_linear_33_43" x1="-4.65355" y1="34.748" x2="80.9992" y2="62.5782" gradientUnits="userSpaceOnUse">
<stop stop-color="#6CBCFC"/>
<stop offset="0.1713" stop-color="#5EABFC"/>
<stop offset="0.4084" stop-color="#509AFC"/>
<stop offset="0.6698" stop-color="#4890FC"/>
<stop offset="1" stop-color="#458DFC"/>
</linearGradient>
<linearGradient id="paint1_linear_33_43" x1="-0.589868" y1="-21.375" x2="60.3866" y2="7.98973" gradientUnits="userSpaceOnUse">
<stop stop-color="#CFE9FF"/>
<stop offset="1" stop-color="#A1D6FB"/>
</linearGradient>
<linearGradient id="paint2_linear_33_43" x1="18.6543" y1="2.57952" x2="57.5901" y2="2.57952" gradientUnits="userSpaceOnUse">
<stop stop-color="#B0F4FF"/>
<stop offset="1" stop-color="#69DCFC"/>
</linearGradient>
<linearGradient id="paint3_linear_33_43" x1="18.7701" y1="29.2075" x2="28.5507" y2="41.8334" gradientUnits="userSpaceOnUse">
<stop stop-color="#6CBCFC"/>
<stop offset="1" stop-color="#458DFC"/>
</linearGradient>
<linearGradient id="paint4_linear_33_43" x1="17.7093" y1="30.0293" x2="27.4899" y2="42.6553" gradientUnits="userSpaceOnUse">
<stop stop-color="#B0F4FF"/>
<stop offset="0.0994384" stop-color="#A1EFFE"/>
<stop offset="0.2994" stop-color="#88E7FD"/>
<stop offset="0.5095" stop-color="#77E1FD"/>
<stop offset="0.7344" stop-color="#6CDDFC"/>
<stop offset="1" stop-color="#69DCFC"/>
</linearGradient>
<linearGradient id="paint5_linear_33_43" x1="33.5807" y1="26.551" x2="55.24" y2="26.564" gradientUnits="userSpaceOnUse">
<stop stop-color="#6CBCFC"/>
<stop offset="1" stop-color="#458DFC"/>
</linearGradient>
<linearGradient id="paint6_linear_33_43" x1="33.5847" y1="30.4037" x2="47.7814" y2="30.4037" gradientUnits="userSpaceOnUse">
<stop stop-color="#6CBCFC"/>
<stop offset="1" stop-color="#458DFC"/>
</linearGradient>
<linearGradient id="paint7_linear_33_43" x1="33.5894" y1="35.0098" x2="62.2374" y2="35.0098" gradientUnits="userSpaceOnUse">
<stop stop-color="#6CBCFC"/>
<stop offset="1" stop-color="#458DFC"/>
</linearGradient>
<linearGradient id="paint8_linear_33_43" x1="14.7499" y1="47.9272" x2="61.6759" y2="47.9272" gradientUnits="userSpaceOnUse">
<stop stop-color="#6CBCFC"/>
<stop offset="1" stop-color="#458DFC"/>
</linearGradient>
<linearGradient id="paint9_linear_33_43" x1="33.594" y1="39.5191" x2="62.242" y2="39.5191" gradientUnits="userSpaceOnUse">
<stop stop-color="#6CBCFC"/>
<stop offset="1" stop-color="#458DFC"/>
</linearGradient>
<clipPath id="clip0_33_43">
<rect width="67.0754" height="95" fill="white" transform="translate(4.63513)"/>
</clipPath>
</defs>
</svg>
